# xmcd
#
# Track frame offsets: 
#        150
#        15120
#        31026
#        50383
#        72184
#        92700
#        112663
#        142923
#        168511
#        199125
#        233715
#
# Disc length: 3334 seconds
#
# Revision: 0
# Processed by: cddbd v1.5.2PL0 Copyright (c) Steve Scherf et al.
# Submitted via: ExactAudioCopyFreeDBPlugin 1.0
#
DISCID=7a0d040b
DTITLE=Guy Smeets Band - Guy Smeets Band
DYEAR=2014
DGENRE=Blues
TTITLE0=Green Light Girl
TTITLE1=Get A Life
TTITLE2=All You Need
TTITLE3=You Ain't Gonna Be My Girl
TTITLE4=I Just Don't Care
TTITLE5=Goin' Down
TTITLE6=Dreams
TTITLE7=So Many Roads
TTITLE8=Bluest Blues
TTITLE9=Sunshine Of Your Love
TTITLE10=Dear Love
EXTD=
EXTT0=
EXTT1=
EXTT2=
EXTT3=
EXTT4=
EXTT5=
EXTT6=
EXTT7=
EXTT8=
EXTT9=
EXTT10=
PLAYORDER=
